<svg width="136" height="33" viewBox="0 0 136 33" fill="none" xmlns="http://www.w3.org/2000/svg">
<path d="M20.2081 15.2183C20.1671 11.6896 23.2831 9.97021 23.4334 9.89322C21.6704 7.48091 18.9371 7.14729 17.9804 7.12163C15.6844 6.89066 13.4567 8.40477 12.295 8.40477C11.106 8.40477 9.30203 7.13446 7.36136 7.17295C4.86035 7.21145 2.52334 8.57158 1.25234 10.6759C-1.38534 14.9745 0.582672 21.2876 3.11101 24.7649C4.38202 26.4715 5.85802 28.3705 7.79869 28.2935C9.69837 28.2165 10.409 27.1644 12.6914 27.1644C14.96 27.1644 15.6161 28.2935 17.5977 28.255C19.6341 28.2294 20.9187 26.5485 22.1351 24.829C23.5974 22.8787 24.1851 20.9539 24.2124 20.8641C24.1441 20.8513 20.2491 19.4527 20.2081 15.2183Z" fill="white"/>
<path d="M16.4773 4.83758C17.5023 3.64425 18.1993 2.01464 17.9943 0.359375C16.5183 0.423533 14.6733 1.32174 13.6073 2.48941C12.6643 3.51594 11.8306 5.2097 12.0493 6.80081C13.703 6.9163 15.4113 6.01809 16.4773 4.83758Z" fill="white"/>
<path d="M44.1656 23.9949H37.7013L36.1433 28.3063H33.41L39.5326 12.3696H42.3753L48.4979 28.3063H45.7099L44.1656 23.9949ZM38.371 22.006H43.4959L40.9676 15.0129H40.8993L38.371 22.006Z" fill="white"/>
<path d="M61.7407 22.4941C61.7407 26.0997 59.6771 28.4222 56.5748 28.4222C54.8119 28.4222 53.4179 27.678 52.6799 26.3948H52.6252V32.1433H50.0833V16.6814H52.5432V18.619H52.5842C53.2949 17.3743 54.7982 16.5659 56.5202 16.5659C59.6771 16.5659 61.7407 18.8884 61.7407 22.4941ZM59.1305 22.4941C59.1305 20.1459 57.8321 18.5933 55.8642 18.5933C53.9235 18.5933 52.6116 20.1716 52.6116 22.4941C52.6116 24.8294 53.9235 26.4077 55.8642 26.4077C57.8321 26.4077 59.1305 24.8679 59.1305 22.4941Z" fill="white"/>
<path d="M75.3533 22.4941C75.3533 26.0997 73.2896 28.4222 70.1872 28.4222C68.4242 28.4222 67.0302 27.678 66.2922 26.3948H66.2376V32.1433H63.7092V16.6814H66.1692V18.619H66.2102C66.9209 17.3743 68.4242 16.5659 70.1462 16.5659C73.2896 16.5659 75.3533 18.8884 75.3533 22.4941ZM72.7429 22.4941C72.7429 20.1459 71.4446 18.5933 69.4766 18.5933C67.5359 18.5933 66.2239 20.1716 66.2239 22.4941C66.2239 24.8294 67.5359 26.4077 69.4766 26.4077C71.4582 26.4077 72.7429 24.8679 72.7429 22.4941Z" fill="white"/>
<path d="M84.3597 23.8666C84.551 25.4449 86.1773 26.4842 88.4187 26.4842C90.5643 26.4842 92.095 25.4449 92.095 24.0206C92.095 22.7888 91.1656 22.0446 88.9653 21.5313L86.765 21.0309C83.649 20.3251 82.2003 18.9522 82.2003 16.7323C82.2003 13.9864 84.756 12.1002 88.3777 12.1002C91.9583 12.1002 94.4183 13.9864 94.5003 16.7323H91.931C91.7806 15.1412 90.373 14.1789 88.3367 14.1789C86.3003 14.1789 84.8927 15.154 84.8927 16.5655C84.8927 17.6947 85.781 18.3491 87.9676 18.8623L89.84 19.2986C93.325 20.0685 94.7736 21.3901 94.7736 23.7126C94.7736 26.6895 92.2453 28.5629 88.2273 28.5629C84.469 28.5629 81.927 26.7409 81.763 23.8538H84.3597V23.8666Z" fill="white"/>
<path d="M100.266 13.9348V16.6807H102.617V18.5669H100.266V24.9698C100.266 25.9707 100.731 26.4326 101.77 26.4326C102.029 26.4326 102.439 26.3941 102.603 26.3813V28.2547C102.316 28.3188 101.756 28.3701 101.196 28.3701C98.6947 28.3701 97.7107 27.4848 97.7107 25.2393V18.5797H95.9067V16.6935H97.7107V13.9348H100.266Z" fill="white"/>
<path d="M103.971 22.4934C103.971 18.8364 106.267 16.5396 109.834 16.5396C113.415 16.5396 115.697 18.8364 115.697 22.4934C115.697 26.1632 113.428 28.4472 109.834 28.4472C106.253 28.4472 103.971 26.1632 103.971 22.4934ZM113.128 22.4934C113.128 19.9913 111.898 18.5028 109.847 18.5028C107.797 18.5028 106.567 19.9913 106.567 22.4934C106.567 25.0083 107.784 26.484 109.847 26.484C111.911 26.484 113.128 25.0083 113.128 22.4934Z" fill="white"/>
<path d="M117.815 16.681H120.234V18.6571H120.289C120.671 17.3483 121.806 16.5527 123.268 16.5527C123.637 16.5527 123.938 16.6041 124.143 16.6426V18.8752C123.938 18.7982 123.5 18.7341 123.008 18.7341C121.368 18.7341 120.357 19.7734 120.357 21.403V28.2935H117.815V16.681Z" fill="white"/>
<path d="M135.84 24.8929C135.499 26.9972 133.312 28.4472 130.511 28.4472C126.916 28.4472 124.675 26.1888 124.675 22.5447C124.675 18.9006 126.916 16.5396 130.401 16.5396C133.818 16.5396 135.977 18.7466 135.977 22.2753V23.0965H127.244V23.2376C127.244 25.2265 128.57 26.5225 130.579 26.5225C131.987 26.5225 133.094 25.8937 133.435 24.8929H135.84ZM127.258 21.4155H133.449C133.394 19.632 132.178 18.4643 130.415 18.4643C128.666 18.4772 127.395 19.6705 127.258 21.4155Z" fill="white"/>
<path d="M38.0561 0.372192C40.4751 0.372192 41.8964 1.77083 41.8964 4.17032C41.8964 6.62114 40.4888 8.01977 38.0561 8.01977H35.104V0.372192H38.0561ZM36.375 6.94193H37.9057C39.6141 6.94193 40.5981 5.94107 40.5981 4.18315C40.5981 2.4509 39.6004 1.45004 37.9057 1.45004H36.375V6.94193Z" fill="white"/>
<path d="M43.3179 5.13284C43.3179 3.27226 44.4249 2.13025 46.2152 2.13025C48.0055 2.13025 49.1125 3.25943 49.1125 5.13284C49.1125 7.00626 48.0055 8.13544 46.2152 8.13544C44.4249 8.13544 43.3179 7.00626 43.3179 5.13284ZM47.8689 5.13284C47.8689 3.87535 47.2675 3.14395 46.2152 3.14395C45.1629 3.14395 44.5615 3.87535 44.5615 5.13284C44.5615 6.39034 45.1492 7.12174 46.2152 7.12174C47.2812 7.12174 47.8689 6.39034 47.8689 5.13284Z" fill="white"/>
<path d="M56.8339 8.0324H55.5766L54.3056 3.77235H54.21L52.939 8.0324H51.6953L50.0007 2.25824H51.2307L52.3377 6.67226H52.4333L53.7043 2.25824H54.866L56.137 6.67226H56.2326L57.3259 2.25824H58.5423L56.8339 8.0324Z" fill="white"/>
<path d="M59.9503 2.24554H61.1257V3.16941H61.2214C61.522 2.52783 62.137 2.14288 63.0527 2.14288C64.4194 2.14288 65.1847 2.91278 65.1847 4.28575V8.03256H63.9684V4.58088C63.9684 3.65701 63.5447 3.19507 62.6427 3.19507C61.7407 3.19507 61.1667 3.75966 61.1667 4.65786V8.03256H59.9503V2.24554Z" fill="white"/>
<path d="M67.1116 0H68.328V8.03251H67.1116V0Z" fill="white"/>
<path d="M70.0231 5.13284C70.0231 3.27226 71.1301 2.13025 72.9204 2.13025C74.7107 2.13025 75.8177 3.25943 75.8177 5.13284C75.8177 7.00626 74.7107 8.13544 72.9204 8.13544C71.1165 8.13544 70.0231 7.00626 70.0231 5.13284ZM74.574 5.13284C74.574 3.87535 73.9727 3.14395 72.9204 3.14395C71.8681 3.14395 71.2668 3.87535 71.2668 5.13284C71.2668 6.39034 71.8544 7.12174 72.9204 7.12174C73.9727 7.12174 74.574 6.39034 74.574 5.13284Z" fill="white"/>
<path d="M77.1021 6.39014C77.1021 5.35078 77.9221 4.74769 79.3844 4.67071L81.0517 4.58088V4.08045C81.0517 3.46454 80.628 3.13092 79.7944 3.13092C79.111 3.13092 78.6464 3.36188 78.5097 3.77249H77.3344C77.4574 2.78446 78.4551 2.14288 79.849 2.14288C81.3934 2.14288 82.268 2.86145 82.268 4.08045V8.03258H81.0927V7.22419H80.997C80.628 7.80161 79.9584 8.13523 79.152 8.13523C77.9631 8.1224 77.1021 7.45516 77.1021 6.39014ZM81.0654 5.90254V5.41494L79.562 5.50476C78.7147 5.55608 78.3321 5.82555 78.3321 6.33881C78.3321 6.86491 78.8104 7.16003 79.4664 7.16003C80.382 7.16003 81.0654 6.62111 81.0654 5.90254Z" fill="white"/>
<path d="M83.8665 5.13261C83.8665 3.31053 84.8641 2.15569 86.4221 2.15569C87.2695 2.15569 87.9801 2.52781 88.3081 3.16938H88.4038V0H89.6201V8.03253H88.4448V7.12149H88.3491C87.9801 7.75023 87.2695 8.13518 86.4221 8.13518C84.8505 8.12235 83.8665 6.96751 83.8665 5.13261ZM85.1238 5.13261C85.1238 6.36443 85.7388 7.09583 86.7638 7.09583C87.7888 7.09583 88.4175 6.3516 88.4175 5.13261C88.4175 3.92644 87.7751 3.16938 86.7638 3.16938C85.7388 3.18222 85.1238 3.92644 85.1238 5.13261Z" fill="white"/>
<path d="M94.6358 5.13284C94.6358 3.27226 95.7428 2.13025 97.5332 2.13025C99.3235 2.13025 100.43 3.25943 100.43 5.13284C100.43 7.00626 99.3235 8.13544 97.5332 8.13544C95.7428 8.13544 94.6358 7.00626 94.6358 5.13284ZM99.1868 5.13284C99.1868 3.87535 98.5855 3.14395 97.5332 3.14395C96.4808 3.14395 95.8795 3.87535 95.8795 5.13284C95.8795 6.39034 96.4671 7.12174 97.5332 7.12174C98.5855 7.12174 99.1868 6.39034 99.1868 5.13284Z" fill="white"/>
<path d="M102.071 2.24554H103.246V3.16941H103.342C103.642 2.52783 104.257 2.14288 105.173 2.14288C106.54 2.14288 107.305 2.91278 107.305 4.28575V8.03256H106.089V4.58088C106.089 3.65701 105.665 3.19507 104.763 3.19507C103.861 3.19507 103.287 3.75966 103.287 4.65786V8.03256H102.071V2.24554Z" fill="white"/>
<path d="M114.165 0.808228V2.27101H115.505V3.23336H114.165V6.21025C114.165 6.81332 114.425 7.08278 115.04 7.08278C115.231 7.08278 115.327 7.06995 115.505 7.05712V8.00664C115.313 8.03231 115.081 8.0708 114.849 8.0708C113.496 8.0708 112.963 7.6217 112.963 6.50537V3.24619H111.992V2.28384H112.963V0.808228H114.165Z" fill="white"/>
<path d="M117.145 0H118.347V3.18221H118.443C118.744 2.54063 119.386 2.14286 120.315 2.14286C121.627 2.14286 122.434 2.92558 122.434 4.29855V8.03251H121.217V4.58084C121.217 3.65697 120.766 3.19504 119.905 3.19504C118.908 3.19504 118.361 3.78529 118.361 4.65783V8.03251H117.145V0Z" fill="white"/>
<path d="M129.526 6.46713C129.253 7.50648 128.269 8.13523 126.862 8.13523C125.099 8.13523 124.019 7.00605 124.019 5.15831C124.019 3.31056 125.126 2.14288 126.862 2.14288C128.57 2.14288 129.608 3.2464 129.608 5.05565V5.45343H125.263V5.51759C125.304 6.53128 125.932 7.17286 126.903 7.17286C127.64 7.17286 128.146 6.92906 128.365 6.46713H129.526ZM125.263 4.60655H128.365C128.337 3.6955 127.75 3.10525 126.848 3.10525C125.946 3.10525 125.331 3.70834 125.263 4.60655Z" fill="white"/>
</svg>
