<svg width="159" height="36" viewBox="0 0 159 36" fill="none" xmlns="http://www.w3.org/2000/svg">
<path d="M51.1809 5.32457C51.1809 6.40242 50.8392 7.26213 50.1559 7.89087C49.3906 8.64793 48.3792 9.03287 47.1493 9.03287C45.9603 9.03287 44.9626 8.64793 44.1289 7.87804C43.2953 7.10815 42.8853 6.14579 42.8853 5.01662C42.8853 3.87462 43.2953 2.92509 44.1289 2.1552C44.9626 1.38531 45.9603 1.00037 47.1493 1.00037C47.7369 1.00037 48.2972 1.10302 48.8302 1.32115C49.3632 1.53929 49.7869 1.82158 50.1149 2.18086L49.3906 2.86093C48.8439 2.25785 48.1059 1.9499 47.1493 1.9499C46.2883 1.9499 45.5366 2.23219 44.9079 2.8096C44.2793 3.37419 43.9649 4.11842 43.9649 5.02945C43.9649 5.94049 44.2793 6.68471 44.9079 7.2493C45.5366 7.81388 46.2883 8.10901 47.1493 8.10901C48.0649 8.10901 48.8302 7.82671 49.4452 7.2493C49.8416 6.87718 50.0739 6.35109 50.1286 5.68386H47.1493V4.74716H51.1262C51.1536 4.95246 51.1809 5.14493 51.1809 5.32457Z" fill="white" stroke="white" stroke-width="0.256629" stroke-miterlimit="10"/>
<path d="M57.481 2.11676H53.7499V4.55474H57.112V5.47861H53.7499V7.91658H57.481V8.86611H52.6976V1.16724H57.481V2.11676Z" fill="white" stroke="white" stroke-width="0.256629" stroke-miterlimit="10"/>
<path d="M61.9224 8.86611H60.8701V2.11676H58.5741V1.16724H64.2047V2.11676H61.9087V8.86611H61.9224Z" fill="white" stroke="white" stroke-width="0.256629" stroke-miterlimit="10"/>
<path d="M68.2908 8.86611V1.16724H69.3431V8.86611H68.2908Z" fill="white" stroke="white" stroke-width="0.256629" stroke-miterlimit="10"/>
<path d="M74.0181 8.86611H72.9657V2.11676H70.6697V1.16724H76.3004V2.11676H74.0044V8.86611H74.0181Z" fill="white" stroke="white" stroke-width="0.256629" stroke-miterlimit="10"/>
<path d="M86.9733 7.86484C86.167 8.64756 85.1694 9.03251 83.9667 9.03251C82.7641 9.03251 81.7664 8.64756 80.9601 7.86484C80.1537 7.08212 79.7574 6.13259 79.7574 5.01625C79.7574 3.89991 80.1537 2.93755 80.9601 2.16767C81.7664 1.38494 82.7641 1 83.9667 1C85.1557 1 86.1533 1.38494 86.9733 2.16767C87.7797 2.95039 88.1897 3.89991 88.1897 5.01625C88.176 6.14542 87.7797 7.09495 86.9733 7.86484ZM81.7391 7.22327C82.3404 7.80068 83.092 8.08298 83.9667 8.08298C84.8414 8.08298 85.593 7.80068 86.1943 7.22327C86.7957 6.64585 87.11 5.91446 87.11 5.01625C87.11 4.11805 86.8093 3.38665 86.1943 2.80924C85.593 2.23182 84.8414 1.9367 83.9667 1.9367C83.092 1.9367 82.3404 2.21899 81.7391 2.79641C81.1377 3.38666 80.8234 4.11805 80.8234 5.01625C80.8234 5.91446 81.1377 6.64585 81.7391 7.22327Z" fill="white" stroke="white" stroke-width="0.256629" stroke-miterlimit="10"/>
<path d="M89.6663 8.86611V1.16724H90.9509L94.9415 7.15953H94.9825L94.9415 5.67108V1.16724H95.9938V8.86611H94.9005L90.7323 2.59153H90.6913L90.7323 4.07998V8.86611H89.6663Z" fill="white" stroke="white" stroke-width="0.256629" stroke-miterlimit="10"/>
<path d="M79.498 20.0928C76.2863 20.0928 73.6623 22.3896 73.6623 25.5462C73.6623 28.6899 76.2863 30.9996 79.498 30.9996C82.7096 30.9996 85.3336 28.6899 85.3336 25.5462C85.3336 22.3896 82.7096 20.0928 79.498 20.0928ZM79.498 28.8567C77.735 28.8567 76.218 27.4966 76.218 25.5462C76.218 23.583 77.735 22.2357 79.498 22.2357C81.261 22.2357 82.778 23.583 82.778 25.5462C82.778 27.4966 81.2473 28.8567 79.498 28.8567ZM66.7607 20.0928C63.549 20.0928 60.925 22.3896 60.925 25.5462C60.925 28.6899 63.549 30.9996 66.7607 30.9996C69.9723 30.9996 72.5963 28.6899 72.5963 25.5462C72.5963 22.3896 69.9723 20.0928 66.7607 20.0928ZM66.7607 28.8567C64.9977 28.8567 63.4807 27.4966 63.4807 25.5462C63.4807 23.583 64.9977 22.2357 66.7607 22.2357C68.5237 22.2357 70.0407 23.583 70.0407 25.5462C70.0407 27.4966 68.5237 28.8567 66.7607 28.8567ZM51.6181 21.7737V24.0834H57.522C57.3444 25.3794 56.8797 26.3417 56.1827 26.9961C55.3217 27.8045 53.9824 28.6899 51.6317 28.6899C47.9964 28.6899 45.1537 25.944 45.1537 22.5308C45.1537 19.1176 47.9964 16.3717 51.6317 16.3717C53.5861 16.3717 55.0211 17.0902 56.0734 18.0269L57.809 16.3973C56.333 15.0757 54.3787 14.062 51.6181 14.062C46.6434 14.062 42.4614 17.8601 42.4614 22.5436C42.4614 27.2143 46.6434 31.0252 51.6181 31.0252C54.3104 31.0252 56.333 30.204 57.9184 28.6514C59.5447 27.1245 60.0504 24.9688 60.0504 23.2365C60.0504 22.6976 60.0094 22.1972 59.9137 21.7866H51.6181V21.7737ZM113.542 23.5701C113.063 22.3511 111.587 20.0928 108.567 20.0928C105.574 20.0928 103.087 22.2998 103.087 25.5462C103.087 28.6001 105.547 30.9996 108.854 30.9996C111.519 30.9996 113.063 29.4726 113.692 28.5872L111.71 27.3426C111.054 28.2536 110.152 28.8567 108.854 28.8567C107.556 28.8567 106.626 28.2921 106.039 27.2015L113.815 24.1861L113.542 23.5701ZM105.615 25.3922C105.547 23.2878 107.351 22.21 108.649 22.21C109.66 22.21 110.521 22.6848 110.808 23.3648L105.615 25.3922ZM99.3009 30.6788H101.857V14.6394H99.3009V30.6788ZM95.1189 21.3118H95.0233C94.4493 20.6702 93.3559 20.0928 91.9619 20.0928C89.0509 20.0928 86.386 22.4923 86.386 25.5719C86.386 28.6257 89.0509 31.0124 91.9619 31.0124C93.3423 31.0124 94.4493 30.435 95.0233 29.7677H95.1053V30.5505C95.1053 32.642 93.9163 33.7583 92.0029 33.7583C90.4449 33.7583 89.4746 32.7062 89.0783 31.8208L86.8506 32.6933C87.4929 34.1433 89.1876 35.914 92.0029 35.914C94.9959 35.914 97.5243 34.2588 97.5243 30.2297V20.4264H95.1053V21.3118H95.1189ZM92.1806 28.8567C90.4176 28.8567 88.9416 27.4709 88.9416 25.5719C88.9416 23.6471 90.4176 22.2485 92.1806 22.2485C93.9163 22.2485 95.2829 23.66 95.2829 25.5719C95.2966 27.4709 93.9299 28.8567 92.1806 28.8567ZM125.513 14.6394H119.405V30.6788H121.96V24.5967H125.527C128.356 24.5967 131.13 22.6719 131.13 19.618C131.13 16.5642 128.329 14.6394 125.513 14.6394ZM125.568 22.364H121.947V16.8593H125.568C127.481 16.8593 128.561 18.3477 128.561 19.6052C128.561 20.8627 127.481 22.364 125.568 22.364ZM141.339 20.0671C139.494 20.0671 137.581 20.837 136.788 22.518L139.057 23.4033C139.535 22.518 140.437 22.2228 141.38 22.2228C142.706 22.2228 144.045 22.9671 144.059 24.2887V24.4555C143.594 24.2117 142.61 23.8396 141.394 23.8396C138.948 23.8396 136.474 25.0971 136.474 27.4452C136.474 29.5881 138.469 30.9739 140.711 30.9739C142.419 30.9739 143.376 30.2553 143.963 29.4085H144.045V30.6531H146.505V24.5068C146.519 21.6582 144.25 20.0671 141.339 20.0671ZM141.025 28.8567C140.191 28.8567 139.03 28.4589 139.03 27.4966C139.03 26.2648 140.478 25.79 141.736 25.79C142.856 25.79 143.389 26.021 144.059 26.3289C143.868 27.8045 142.501 28.8567 141.025 28.8567ZM155.484 20.4136L152.56 27.3683H152.478L149.444 20.4136H146.697L151.248 30.1399L148.651 35.5419H151.316L158.327 20.4136H155.484ZM132.524 30.6788H135.08V14.6394H132.524V30.6788Z" fill="white"/>
<path d="M0.64166 1.85935C0.245327 2.25713 0.0129929 2.87304 0.0129929 3.65576V32.039C0.0129929 32.8346 0.245327 33.4505 0.64166 33.8354L0.737328 33.9252L17.6703 18.0399V17.8474V17.6549L0.737328 1.76953L0.64166 1.85935Z" fill="url(#paint0_linear_736_5915)"/>
<path d="M23.3165 23.3393L17.6721 18.0398V17.8474V17.6549L23.3165 12.3555L23.4395 12.4196L30.1225 15.9868C32.0359 17.0005 32.0359 18.6686 30.1225 19.6951L23.4395 23.2623L23.3165 23.3393Z" fill="url(#paint1_linear_736_5915)"/>
<path d="M23.4387 23.2752L17.6714 17.8475L0.642776 33.8355C1.27144 34.4643 2.3101 34.5413 3.48543 33.9125L23.4387 23.2752Z" fill="url(#paint2_linear_736_5915)"/>
<path d="M23.4382 12.4326L3.47133 1.78248C2.29601 1.15374 1.25735 1.23073 0.628685 1.85947L17.6709 17.8475L23.4382 12.4326Z" fill="url(#paint3_linear_736_5915)"/>
<path opacity="0.2" d="M23.3145 23.1471L3.47058 33.733C2.36359 34.3233 1.36592 34.2848 0.737261 33.7459L0.641594 33.8357L0.737261 33.9255C1.37959 34.4644 2.36359 34.5029 3.47058 33.9127L23.4375 23.2626L23.3145 23.1471Z" fill="black"/>
<path opacity="0.12" d="M0.640562 33.6559C0.244175 33.2581 0.0118103 32.6422 0.0118103 31.8595V32.052C0.0118103 32.8475 0.244175 33.4634 0.640562 33.8484L0.736243 33.7585L0.640562 33.6559Z" fill="black"/>
<path opacity="0.12" d="M30.122 19.5156L23.3023 23.1469L23.4253 23.2624L30.1083 19.6953C31.065 19.182 31.5433 18.5148 31.5433 17.8475C31.475 18.4506 30.9966 19.0537 30.122 19.5156Z" fill="black"/>
<path opacity="0.25" d="M3.47134 1.96312L30.1214 16.1804C30.9824 16.6423 31.4744 17.2326 31.5564 17.8485C31.5564 17.1812 31.0781 16.5012 30.1214 16.0007L3.47134 1.78348C1.558 0.76979 0 1.61667 0 3.6697V3.86217C0 1.79631 1.57167 0.949431 3.47134 1.96312Z" fill="white"/>
<defs>
<linearGradient id="paint0_linear_736_5915" x1="16.1665" y1="3.36038" x2="-5.32511" y2="26.2508" gradientUnits="userSpaceOnUse">
<stop stop-color="#00A0FF"/>
<stop offset="0.00657445" stop-color="#00A1FF"/>
<stop offset="0.2601" stop-color="#00BEFF"/>
<stop offset="0.5122" stop-color="#00D2FF"/>
<stop offset="0.7604" stop-color="#00DFFF"/>
<stop offset="1" stop-color="#00E3FF"/>
</linearGradient>
<linearGradient id="paint1_linear_736_5915" x1="32.6158" y1="17.8493" x2="-0.453601" y2="17.8493" gradientUnits="userSpaceOnUse">
<stop stop-color="#FFE000"/>
<stop offset="0.4087" stop-color="#FFBD00"/>
<stop offset="0.7754" stop-color="#FFA500"/>
<stop offset="1" stop-color="#FF9C00"/>
</linearGradient>
<linearGradient id="paint2_linear_736_5915" x1="20.3048" y1="20.7939" x2="-8.83952" y2="51.835" gradientUnits="userSpaceOnUse">
<stop stop-color="#FF3A44"/>
<stop offset="1" stop-color="#C31162"/>
</linearGradient>
<linearGradient id="paint3_linear_736_5915" x1="-3.65278" y1="-7.58924" x2="9.36146" y2="6.27186" gradientUnits="userSpaceOnUse">
<stop stop-color="#32A071"/>
<stop offset="0.0685" stop-color="#2DA771"/>
<stop offset="0.4762" stop-color="#15CF74"/>
<stop offset="0.8009" stop-color="#06E775"/>
<stop offset="1" stop-color="#00F076"/>
</linearGradient>
</defs>
</svg>
